<?xml version="1.0" encoding="UTF-8" standalone="no"?>
<svg width="80px" height="48px" viewBox="0 0 80 48" version="1.1" xmlns="http://www.w3.org/2000/svg" xmlns:xlink="http://www.w3.org/1999/xlink" xmlns:sketch="http://www.bohemiancoding.com/sketch/ns">
    <!-- Generator: Sketch 3.1 (8751) - http://www.bohemiancoding.com/sketch -->
    <title>social-icons</title>
    <desc>Created with Sketch.</desc>
    <defs></defs>
    <g id="Sag-social" stroke="none" stroke-width="1" fill="none" fill-rule="evenodd" sketch:type="MSPage">
        <g id="social-icons" sketch:type="MSArtboardGroup">
            <g id="cd-socials" sketch:type="MSLayerGroup">
                <path d="M16,3 C15.4,3.3 14.8,3.4 14.1,3.5 C14.8,3.1 15.3,2.5 15.5,1.7 C14.9,2.1 14.2,2.3 13.4,2.5 C12.8,1.9 11.9,1.5 11,1.5 C9.2,1.5 7.7,3 7.7,4.8 C7.7,5.1 7.7,5.3 7.8,5.5 C5.1,5.4 2.7,4.1 1,2.1 C0.7,2.6 0.6,3.1 0.6,3.8 C0.6,4.9 1.2,5.9 2.1,6.5 C1.6,6.5 1.1,6.3 0.6,6.1 L0.6,6.1 C0.6,7.7 1.7,9 3.2,9.3 C2.8,9.6 2.2,9.6 1.7,9.3 C2.1,10.6 3.3,11.6 4.8,11.6 C3.7,12.5 2.3,13 0.7,13 L-0.1,13 C1.4,13.9 3.1,14.5 4.9,14.5 C10.9,14.5 14.2,9.5 14.2,5.2 L14.2,4.8 C15,4.3 15.6,3.7 16,3 L16,3 Z" id="Shape" fill="#CCCCCC" sketch:type="MSShapeGroup"></path>
                <path d="M16,35 C15.4,35.3 14.8,35.4 14.1,35.5 C14.8,35.1 15.3,34.5 15.5,33.7 C14.9,34.1 14.2,34.3 13.4,34.5 C12.8,33.9 11.9,33.5 11,33.5 C9.2,33.5 7.7,35 7.7,36.8 C7.7,37.1 7.7,37.3 7.8,37.5 C5.1,37.4 2.7,36.1 1,34.1 C0.7,34.6 0.6,35.1 0.6,35.8 C0.6,36.9 1.2,37.9 2.1,38.5 C1.6,38.5 1.1,38.3 0.6,38.1 L0.6,38.1 C0.6,39.7 1.7,41 3.2,41.3 C2.8,41.6 2.2,41.6 1.7,41.3 C2.1,42.6 3.3,43.6 4.8,43.6 C3.7,44.5 2.3,45 0.7,45 L-0.1,45 C1.4,45.9 3.1,46.5 4.9,46.5 C10.9,46.5 14.2,41.5 14.2,37.2 L14.2,36.8 C15,36.3 15.6,35.7 16,35 L16,35 Z" id="Shape" fill="#FFFFFF" sketch:type="MSShapeGroup"></path>
            </g>
            <path d="M35.5983448,2.64892857 C35.5983448,3.56017857 34.9053793,4.29785714 33.7655172,4.29785714 C32.6929655,4.29785714 32,3.55964286 32,2.64892857 C32,1.71625 32.7161379,1 33.8107586,1 C34.9053793,1 35.5762759,1.71678571 35.5983448,2.64892857 L35.5983448,2.64892857 Z M32.089931,16.2121429 L32.089931,5.60071429 L35.4868966,5.60071429 L35.4868966,16.2121429 L32.089931,16.2121429 L32.089931,16.2121429 Z M37.52,8.98589286 C37.52,7.66267857 37.4747586,6.55589286 37.430069,5.60125 L40.3801379,5.60125 L40.5373793,7.07714286 L40.6046897,7.07714286 C41.0515862,6.38178571 42.1467586,5.36285714 43.9795862,5.36285714 C46.214069,5.36285714 47.8902069,6.81678571 47.8902069,9.94160714 L47.8902069,16.2132143 L44.4932414,16.2132143 L44.4932414,10.3321429 C44.4932414,8.965 44.0005517,8.03178571 42.7718621,8.03178571 C41.8333793,8.03178571 41.2755862,8.66071429 41.0295172,9.26875 C40.9395862,9.48571429 40.9175172,9.78892857 40.9175172,10.0932143 L40.9175172,16.2132143 L37.5205517,16.2132143 L37.5205517,8.98589286 L37.52,8.98589286 Z" id="linked-in-icon" fill="#CCCCCC" sketch:type="MSShapeGroup"></path>
            <path d="M70.4565,7.94633333 C70.4565,7.94633333 71.971,7.8232381 71.971,5.88461905 C71.971,3.946 70.732,3 69.163,3 L64,3 L64,13.8334286 L69.163,13.8334286 C69.163,13.8334286 72.314,13.9413333 72.314,10.6371429 C72.315,10.6371429 72.4515,7.94685714 70.4565,7.94685714 L70.4565,7.94633333 Z M66.2745,4.925 L69.1625,4.925 C69.1625,4.925 69.864,4.925 69.864,6.0522381 C69.864,7.17947619 69.451,7.34290476 68.9825,7.34290476 L66.2745,7.34290476 L66.2745,4.925 L66.2745,4.925 Z M69.0165,11.9079048 L66.275,11.9079048 L66.275,9.01228571 L69.163,9.01228571 C69.163,9.01228571 70.2095,8.99709524 70.2095,10.4999048 C70.2095,11.767 69.428,11.8984762 69.0165,11.9079048 L69.0165,11.9079048 Z M76.518,5.75628571 C72.702,5.75628571 72.705,9.91742857 72.705,9.91742857 C72.705,9.91742857 72.4435,14.0586667 76.518,14.0586667 C76.518,14.0586667 79.913,14.2713333 79.913,11.1771905 L78.1675,11.1771905 C78.1675,11.1771905 78.225,12.3431905 76.5765,12.3431905 C76.5765,12.3431905 74.83,12.4704762 74.83,10.4590476 L79.9715,10.4590476 C79.9725,10.4600952 80.5345,5.75628571 76.518,5.75628571 L76.518,5.75628571 Z M78.0705,9.01333333 L74.8115,9.01333333 C74.8115,9.01333333 75.025,7.34290476 76.558,7.34290476 C78.089,7.34290476 78.071,9.01333333 78.071,9.01333333 L78.0705,9.01333333 Z M78.478,3.638 L74.3835,3.638 L74.3835,4.97214286 L78.477,4.97214286 L78.477,3.638 L78.478,3.638 Z" id="behance-icon" fill="#CCCCCC" sketch:type="MSShapeGroup"></path>
            <path d="M35.5983448,34.6489286 C35.5983448,35.5601786 34.9053793,36.2978571 33.7655172,36.2978571 C32.6929655,36.2978571 32,35.5596429 32,34.6489286 C32,33.71625 32.7161379,33 33.8107586,33 C34.9053793,33 35.5762759,33.7167857 35.5983448,34.6489286 L35.5983448,34.6489286 Z M32.089931,48.2121429 L32.089931,37.6007143 L35.4868966,37.6007143 L35.4868966,48.2121429 L32.089931,48.2121429 L32.089931,48.2121429 Z M37.52,40.9858929 C37.52,39.6626786 37.4747586,38.5558929 37.430069,37.60125 L40.3801379,37.60125 L40.5373793,39.0771429 L40.6046897,39.0771429 C41.0515862,38.3817857 42.1467586,37.3628571 43.9795862,37.3628571 C46.214069,37.3628571 47.8902069,38.8167857 47.8902069,41.9416071 L47.8902069,48.2132143 L44.4932414,48.2132143 L44.4932414,42.3321429 C44.4932414,40.965 44.0005517,40.0317857 42.7718621,40.0317857 C41.8333793,40.0317857 41.2755862,40.6607143 41.0295172,41.26875 C40.9395862,41.4857143 40.9175172,41.7889286 40.9175172,42.0932143 L40.9175172,48.2132143 L37.5205517,48.2132143 L37.5205517,40.9858929 L37.52,40.9858929 Z" id="linked-in-icon-2" fill="#FFFFFF" sketch:type="MSShapeGroup"></path>
            <path d="M70.4565,39.9463333 C70.4565,39.9463333 71.971,39.8232381 71.971,37.884619 C71.971,35.946 70.732,35 69.163,35 L64,35 L64,45.8334286 L69.163,45.8334286 C69.163,45.8334286 72.314,45.9413333 72.314,42.6371429 C72.315,42.6371429 72.4515,39.9468571 70.4565,39.9468571 L70.4565,39.9463333 Z M66.2745,36.925 L69.1625,36.925 C69.1625,36.925 69.864,36.925 69.864,38.0522381 C69.864,39.1794762 69.451,39.3429048 68.9825,39.3429048 L66.2745,39.3429048 L66.2745,36.925 L66.2745,36.925 Z M69.0165,43.9079048 L66.275,43.9079048 L66.275,41.0122857 L69.163,41.0122857 C69.163,41.0122857 70.2095,40.9970952 70.2095,42.4999048 C70.2095,43.767 69.428,43.8984762 69.0165,43.9079048 L69.0165,43.9079048 Z M76.518,37.7562857 C72.702,37.7562857 72.705,41.9174286 72.705,41.9174286 C72.705,41.9174286 72.4435,46.0586667 76.518,46.0586667 C76.518,46.0586667 79.913,46.2713333 79.913,43.1771905 L78.1675,43.1771905 C78.1675,43.1771905 78.225,44.3431905 76.5765,44.3431905 C76.5765,44.3431905 74.83,44.4704762 74.83,42.4590476 L79.9715,42.4590476 C79.9725,42.4600952 80.5345,37.7562857 76.518,37.7562857 L76.518,37.7562857 Z M78.0705,41.0133333 L74.8115,41.0133333 C74.8115,41.0133333 75.025,39.3429048 76.558,39.3429048 C78.089,39.3429048 78.071,41.0133333 78.071,41.0133333 L78.0705,41.0133333 Z M78.478,35.638 L74.3835,35.638 L74.3835,36.9721429 L78.477,36.9721429 L78.477,35.638 L78.478,35.638 Z" id="behance-icon-2" fill="#FFFFFF" sketch:type="MSShapeGroup"></path>
        </g>
    </g>
</svg>